<?xml version="1.0" encoding="UTF-8" standalone="no"?>
<!-- Created with Inkscape (http://www.inkscape.org/) -->

<svg
   width="113.85983mm"
   height="23.706684mm"
   viewBox="0 0 113.85983 23.706684"
   version="1.1"
   id="svg1"
   inkscape:version="1.3.2 (091e20e, 2023-11-25, custom)"
   sodipodi:docname="log4mc.svg"
   xmlns:inkscape="http://www.inkscape.org/namespaces/inkscape"
   xmlns:sodipodi="http://sodipodi.sourceforge.net/DTD/sodipodi-0.dtd"
   xmlns="http://www.w3.org/2000/svg"
   xmlns:svg="http://www.w3.org/2000/svg">
  <sodipodi:namedview
     id="namedview1"
     pagecolor="#ffffff"
     bordercolor="#000000"
     borderopacity="0.25"
     inkscape:showpageshadow="2"
     inkscape:pageopacity="0.0"
     inkscape:pagecheckerboard="0"
     inkscape:deskcolor="#d1d1d1"
     inkscape:document-units="mm"
     inkscape:zoom="1.0570195"
     inkscape:cx="434.23986"
     inkscape:cy="303.21106"
     inkscape:window-width="1920"
     inkscape:window-height="1017"
     inkscape:window-x="1912"
     inkscape:window-y="-8"
     inkscape:window-maximized="1"
     inkscape:current-layer="layer1" />
  <defs
     id="defs1" />
  <g
     inkscape:label="Calque 1"
     inkscape:groupmode="layer"
     id="layer1"
     transform="translate(-46.83125,-132.55624)">
    <path
       style="font-size:33.8667px;font-family:Tektur;-inkscape-font-specification:'Tektur, @wght=700,wdth=90.0';font-variation-settings:'wdth' 90, 'wght' 700;fill:#ffffff;stroke-width:8;stroke-linecap:round;stroke-linejoin:round"
       d="m 46.831248,156.26293 v -23.70669 h 5.689605 v 18.96536 h 4.639739 v -4.74134 h 5.012272 v 9.48267 z m 17.475186,-4.03013 v -15.64642 l 4.064005,-4.03014 h 9.550409 l 4.064004,4.03014 v 15.64642 l -4.064004,4.03013 h -9.550409 z m 5.892807,-14.66428 v 13.68214 h 5.892805 v -13.68214 z m 14.427228,14.63041 v -15.57868 l 4.064004,-4.06401 h 11.514677 v 5.04614 h -9.855209 v 13.64828 h 5.858939 v -5.08 h -3.48827 v -4.53814 h 8.50054 v 14.63041 H 88.690473 Z m 18.999221,-2.032 0.77894,-17.61069 h 5.45254 l -0.6096,12.53068 h 5.3848 v -12.53068 h 5.62187 v 23.70669 h -5.62187 v -6.096 z m 19.47333,6.096 v -23.70669 h 6.26534 l 3.92854,9.04241 3.92853,-9.04241 h 6.23148 v 23.70669 h -5.52028 v -15.61254 l -3.69147,8.19574 h -1.89653 l -3.69147,-8.19574 v 15.61254 z m 23.13098,-4.064 v -15.57868 l 4.064,-4.06401 h 10.12615 v 5.21548 h -8.19574 v 13.27574 h 8.46667 v 5.21547 H 150.294 Z"
       id="text1-3"
       aria-label="LOG4MC"
       inkscape:export-filename="light.svg"
       inkscape:export-xdpi="96"
       inkscape:export-ydpi="96" />
  </g>
</svg>
